<?xml version="1.0" encoding="UTF-8"?>
<svg xmlns="http://www.w3.org/2000/svg" xmlns:xlink="http://www.w3.org/1999/xlink" width="688pt" height="424pt" viewBox="0 0 688 424" version="1.1">
<defs>
<clipPath id="clip1">
  <path d="M 0 0.660156 L 687.40625 0.660156 L 687.40625 424 L 0 424 Z M 0 0.660156 "/>
</clipPath>
</defs>
<g id="surface1">
<g clip-path="url(#clip1)" clip-rule="nonzero">
<path style=" stroke:none;fill-rule:nonzero;fill:rgb(44.766235%,73.420715%,91.648865%);fill-opacity:1;" d="M 687.40625 326.140625 L 687.40625 35.078125 C 687.40625 16.066406 671.996094 0.660156 652.992188 0.660156 L 34.417969 0.660156 C 15.410156 0.660156 0 16.066406 0 35.078125 L 0 389.582031 C 0 408.589844 15.410156 424 34.417969 424 L 589.773438 424 L 687.40625 326.140625 "/>
</g>
<path style=" stroke:none;fill-rule:nonzero;fill:rgb(100%,100%,100%);fill-opacity:1;" d="M 64.59375 251.597656 L 64.59375 186.519531 L 76.644531 186.519531 C 77.855469 186.519531 78.871094 186.789062 79.6875 187.339844 C 80.503906 187.882812 81.078125 188.695312 81.414062 189.785156 L 82.476562 193.296875 C 83.566406 192.167969 84.699219 191.136719 85.867188 190.195312 C 87.039062 189.253906 88.304688 188.433594 89.664062 187.742188 C 91.023438 187.058594 92.488281 186.507812 94.058594 186.109375 C 95.625 185.71875 97.351562 185.519531 99.238281 185.519531 C 103.167969 185.519531 106.421875 186.53125 108.996094 188.5625 C 111.566406 190.59375 113.519531 193.296875 114.859375 196.683594 C 115.949219 194.683594 117.277344 192.964844 118.847656 191.542969 C 120.414062 190.121094 122.109375 188.972656 123.929688 188.089844 C 125.75 187.210938 127.671875 186.5625 129.703125 186.144531 C 131.730469 185.726562 133.753906 185.519531 135.761719 185.519531 C 139.480469 185.519531 142.789062 186.070312 145.671875 187.179688 C 148.5625 188.289062 150.976562 189.902344 152.921875 192.015625 C 154.867188 194.121094 156.34375 196.71875 157.347656 199.796875 C 158.351562 202.871094 158.855469 206.351562 158.855469 210.242188 L 158.855469 251.597656 L 139.398438 251.597656 L 139.398438 210.242188 C 139.398438 203.507812 136.511719 200.136719 130.738281 200.136719 C 128.101562 200.136719 125.914062 201.007812 124.179688 202.742188 C 122.445312 204.480469 121.574219 206.976562 121.574219 210.242188 L 121.574219 251.597656 L 102.121094 251.597656 L 102.121094 210.242188 C 102.121094 206.519531 101.390625 203.90625 99.925781 202.402344 C 98.460938 200.890625 96.304688 200.136719 93.460938 200.136719 C 91.707031 200.136719 90.042969 200.535156 88.472656 201.332031 C 86.902344 202.125 85.429688 203.191406 84.046875 204.53125 L 84.046875 251.597656 L 64.59375 251.597656 "/>
<path style=" stroke:none;fill-rule:nonzero;fill:rgb(100%,100%,100%);fill-opacity:1;" d="M 201.652344 238.164062 C 206.128906 238.164062 209.425781 236.589844 211.539062 233.429688 C 213.648438 230.269531 214.707031 225.46875 214.707031 219.027344 C 214.707031 212.589844 213.648438 207.796875 211.539062 204.660156 C 209.425781 201.519531 206.128906 199.949219 201.652344 199.949219 C 197.050781 199.949219 193.679688 201.519531 191.550781 204.660156 C 189.414062 207.796875 188.347656 212.589844 188.347656 219.027344 C 188.347656 225.46875 189.414062 230.269531 191.550781 233.429688 C 193.679688 236.589844 197.050781 238.164062 201.652344 238.164062 Z M 201.652344 185.519531 C 206.589844 185.519531 211.085938 186.292969 215.144531 187.835938 C 219.203125 189.386719 222.683594 191.605469 225.59375 194.492188 C 228.5 197.375 230.761719 200.886719 232.371094 205 C 233.980469 209.125 234.785156 213.757812 234.785156 218.898438 C 234.785156 224.089844 233.980469 228.765625 232.371094 232.925781 C 230.761719 237.089844 228.5 240.621094 225.59375 243.535156 C 222.683594 246.4375 219.203125 248.679688 215.144531 250.246094 C 211.085938 251.816406 206.589844 252.597656 201.652344 252.597656 C 196.671875 252.597656 192.144531 251.816406 188.066406 250.246094 C 183.988281 248.679688 180.472656 246.4375 177.523438 243.535156 C 174.574219 240.621094 172.292969 237.089844 170.683594 232.925781 C 169.070312 228.765625 168.265625 224.089844 168.265625 218.898438 C 168.265625 213.757812 169.070312 209.125 170.683594 205 C 172.292969 200.886719 174.574219 197.375 177.523438 194.492188 C 180.472656 191.605469 183.988281 189.386719 188.066406 187.835938 C 192.144531 186.292969 196.671875 185.519531 201.652344 185.519531 "/>
<path style=" stroke:none;fill-rule:nonzero;fill:rgb(100%,100%,100%);fill-opacity:1;" d="M 277.210938 200.136719 C 275.785156 200.136719 274.5 200.277344 273.351562 200.546875 C 272.199219 200.816406 271.132812 201.203125 270.148438 201.710938 C 269.164062 202.207031 268.257812 202.847656 267.421875 203.625 C 266.582031 204.398438 265.746094 205.285156 264.90625 206.289062 L 264.90625 233.898438 C 266.375 235.53125 267.964844 236.671875 269.679688 237.320312 C 271.394531 237.96875 273.191406 238.292969 275.074219 238.292969 C 276.875 238.292969 278.527344 237.9375 280.035156 237.226562 C 281.539062 236.511719 282.847656 235.371094 283.953125 233.804688 C 285.0625 232.234375 285.933594 230.199219 286.5625 227.6875 C 287.1875 225.175781 287.5 222.125 287.5 218.523438 C 287.5 215.09375 287.25 212.210938 286.75 209.867188 C 286.246094 207.523438 285.546875 205.632812 284.644531 204.1875 C 283.746094 202.742188 282.671875 201.710938 281.414062 201.078125 C 280.15625 200.453125 278.757812 200.136719 277.210938 200.136719 Z M 245.453125 251.597656 L 245.453125 157.652344 L 264.90625 157.652344 L 264.90625 193.425781 C 267.335938 191.039062 270.089844 189.125 273.160156 187.683594 C 276.238281 186.238281 279.847656 185.519531 283.988281 185.519531 C 287.378906 185.519531 290.515625 186.25 293.398438 187.714844 C 296.289062 189.175781 298.777344 191.324219 300.867188 194.144531 C 302.960938 196.972656 304.601562 200.429688 305.796875 204.53125 C 306.988281 208.632812 307.582031 213.296875 307.582031 218.523438 C 307.582031 223.421875 306.902344 227.933594 305.542969 232.078125 C 304.183594 236.21875 302.28125 239.820312 299.832031 242.875 C 297.386719 245.929688 294.457031 248.3125 291.050781 250.023438 C 287.636719 251.738281 283.859375 252.597656 279.71875 252.597656 C 277.796875 252.597656 276.070312 252.410156 274.542969 252.03125 C 273.015625 251.65625 271.613281 251.125 270.335938 250.433594 C 269.0625 249.742188 267.890625 248.917969 266.824219 247.953125 C 265.757812 246.992188 264.71875 245.945312 263.714844 244.816406 L 263.027344 248.082031 C 262.734375 249.421875 262.199219 250.339844 261.429688 250.84375 C 260.652344 251.347656 259.636719 251.597656 258.382812 251.597656 L 245.453125 251.597656 "/>
<path style=" stroke:none;fill-rule:nonzero;fill:rgb(100%,100%,100%);fill-opacity:1;" d="M 338.328125 186.519531 L 338.328125 251.597656 L 318.875 251.597656 L 318.875 186.519531 Z M 340.589844 168.695312 C 340.589844 170.246094 340.273438 171.699219 339.648438 173.0625 C 339.019531 174.417969 338.164062 175.613281 337.074219 176.636719 C 335.984375 177.660156 334.722656 178.480469 333.277344 179.082031 C 331.835938 179.691406 330.296875 179.996094 328.664062 179.996094 C 327.074219 179.996094 325.589844 179.691406 324.210938 179.082031 C 322.828125 178.480469 321.605469 177.660156 320.539062 176.636719 C 319.472656 175.613281 318.636719 174.417969 318.027344 173.0625 C 317.421875 171.699219 317.117188 170.246094 317.117188 168.695312 C 317.117188 167.109375 317.421875 165.625 318.027344 164.242188 C 318.636719 162.863281 319.472656 161.648438 320.539062 160.601562 C 321.605469 159.554688 322.828125 158.742188 324.210938 158.15625 C 325.589844 157.570312 327.074219 157.273438 328.664062 157.273438 C 330.296875 157.273438 331.835938 157.570312 333.277344 158.15625 C 334.722656 158.742188 335.984375 159.554688 337.074219 160.601562 C 338.164062 161.648438 339.019531 162.863281 339.648438 164.242188 C 340.273438 165.625 340.589844 167.109375 340.589844 168.695312 "/>
<path style=" stroke:none;fill-rule:nonzero;fill:rgb(100%,100%,100%);fill-opacity:1;" d="M 374.097656 157.652344 L 374.097656 251.597656 L 354.648438 251.597656 L 354.648438 157.652344 L 374.097656 157.652344 "/>
<path style=" stroke:none;fill-rule:nonzero;fill:rgb(100%,100%,100%);fill-opacity:1;" d="M 418.027344 198.949219 C 414.304688 198.949219 411.394531 200.003906 409.300781 202.113281 C 407.210938 204.226562 405.832031 207.269531 405.160156 211.25 L 429.449219 211.25 C 429.449219 209.699219 429.25 208.195312 428.851562 206.726562 C 428.453125 205.261719 427.804688 203.957031 426.902344 202.804688 C 426.007812 201.652344 424.824219 200.722656 423.363281 200.015625 C 421.894531 199.300781 420.117188 198.949219 418.027344 198.949219 Z M 417.652344 185.519531 C 421.957031 185.519531 425.902344 186.1875 429.476562 187.527344 C 433.054688 188.867188 436.132812 190.808594 438.707031 193.359375 C 441.277344 195.914062 443.285156 199.042969 444.726562 202.742188 C 446.171875 206.445312 446.894531 210.640625 446.894531 215.328125 C 446.894531 216.792969 446.828125 217.980469 446.707031 218.898438 C 446.578125 219.824219 446.347656 220.554688 446.015625 221.097656 C 445.679688 221.644531 445.230469 222.019531 444.664062 222.222656 C 444.101562 222.433594 443.382812 222.539062 442.503906 222.539062 L 404.972656 222.539062 C 405.597656 227.980469 407.253906 231.925781 409.933594 234.371094 C 412.605469 236.816406 416.058594 238.039062 420.285156 238.039062 C 422.542969 238.039062 424.492188 237.769531 426.121094 237.226562 C 427.753906 236.683594 429.203125 236.074219 430.484375 235.40625 C 431.757812 234.734375 432.929688 234.128906 433.996094 233.585938 C 435.066406 233.042969 436.183594 232.769531 437.355469 232.769531 C 438.898438 232.769531 440.074219 233.335938 440.867188 234.464844 L 446.519531 241.433594 C 444.511719 243.734375 442.339844 245.601562 440.023438 247.046875 C 437.699219 248.492188 435.3125 249.621094 432.867188 250.433594 C 430.421875 251.253906 427.972656 251.816406 425.527344 252.128906 C 423.078125 252.441406 420.742188 252.597656 418.527344 252.597656 C 413.964844 252.597656 409.6875 251.855469 405.695312 250.371094 C 401.699219 248.890625 398.207031 246.683594 395.214844 243.75 C 392.226562 240.820312 389.855469 237.183594 388.125 232.832031 C 386.386719 228.484375 385.519531 223.421875 385.519531 217.640625 C 385.519531 213.296875 386.261719 209.175781 387.746094 205.285156 C 389.230469 201.394531 391.363281 197.984375 394.144531 195.058594 C 396.929688 192.125 400.296875 189.808594 404.25 188.089844 C 408.203125 186.375 412.671875 185.519531 417.652344 185.519531 "/>
<path style=" stroke:none;fill-rule:nonzero;fill:rgb(100%,100%,100%);fill-opacity:1;" d="M 204.160156 352.039062 C 206.671875 352.039062 208.867188 351.597656 210.75 350.71875 C 212.632812 349.84375 214.535156 348.421875 216.460938 346.453125 L 216.460938 337.542969 C 212.570312 337.542969 209.367188 337.796875 206.859375 338.300781 C 204.351562 338.804688 202.359375 339.4375 200.898438 340.199219 C 199.433594 340.960938 198.417969 341.824219 197.855469 342.792969 C 197.289062 343.765625 197.007812 344.816406 197.007812 345.957031 C 197.007812 348.199219 197.613281 349.769531 198.828125 350.679688 C 200.039062 351.585938 201.816406 352.039062 204.160156 352.039062 Z M 226.5 363.898438 C 224.660156 363.898438 223.269531 363.648438 222.328125 363.144531 C 221.386719 362.640625 220.601562 361.597656 219.972656 360.007812 L 218.59375 356.429688 C 216.964844 357.808594 215.394531 359.023438 213.886719 360.066406 C 212.382812 361.113281 210.820312 362.003906 209.210938 362.734375 C 207.601562 363.472656 205.886719 364.015625 204.066406 364.367188 C 202.246094 364.722656 200.226562 364.898438 198.011719 364.898438 C 195.039062 364.898438 192.339844 364.511719 189.914062 363.738281 C 187.488281 362.964844 185.429688 361.816406 183.734375 360.308594 C 182.039062 358.796875 180.730469 356.914062 179.8125 354.667969 C 178.890625 352.425781 178.429688 349.832031 178.429688 346.894531 C 178.429688 344.585938 179.015625 342.21875 180.1875 339.78125 C 181.359375 337.347656 183.390625 335.136719 186.273438 333.136719 C 189.160156 331.144531 193.054688 329.480469 197.949219 328.136719 C 202.84375 326.789062 209.015625 326.121094 216.460938 326.121094 L 216.460938 323.332031 C 216.460938 319.492188 215.675781 316.714844 214.109375 315.003906 C 212.539062 313.292969 210.308594 312.4375 207.425781 312.4375 C 205.121094 312.4375 203.242188 312.691406 201.777344 313.1875 C 200.3125 313.691406 199.003906 314.257812 197.855469 314.886719 C 196.703125 315.511719 195.582031 316.078125 194.496094 316.582031 C 193.40625 317.078125 192.113281 317.335938 190.605469 317.335938 C 189.265625 317.335938 188.125 317.007812 187.183594 316.359375 C 186.246094 315.710938 185.5 314.902344 184.957031 313.941406 L 181.445312 307.855469 C 185.375 304.386719 189.734375 301.800781 194.527344 300.109375 C 199.316406 298.410156 204.453125 297.5625 209.933594 297.5625 C 213.863281 297.5625 217.410156 298.203125 220.570312 299.476562 C 223.730469 300.757812 226.40625 302.53125 228.601562 304.8125 C 230.800781 307.089844 232.484375 309.804688 233.65625 312.941406 C 234.824219 316.078125 235.410156 319.507812 235.410156 323.230469 L 235.410156 363.898438 L 226.5 363.898438 "/>
<path style=" stroke:none;fill-rule:nonzero;fill:rgb(100%,100%,100%);fill-opacity:1;" d="M 272.058594 364.898438 C 268.964844 364.898438 266.234375 364.453125 263.871094 363.554688 C 261.507812 362.652344 259.519531 361.378906 257.90625 359.726562 C 256.296875 358.070312 255.074219 356.074219 254.238281 353.730469 C 253.402344 351.386719 252.984375 348.773438 252.984375 345.886719 L 252.984375 312.246094 L 247.460938 312.246094 C 246.457031 312.246094 245.597656 311.929688 244.886719 311.273438 C 244.175781 310.628906 243.820312 309.675781 243.820312 308.417969 L 243.820312 300.828125 L 254.175781 298.816406 L 258.003906 282.941406 C 258.507812 280.933594 259.929688 279.933594 262.273438 279.933594 L 272.4375 279.933594 L 272.4375 298.945312 L 288.25 298.945312 L 288.25 312.246094 L 272.4375 312.246094 L 272.4375 344.570312 C 272.4375 346.074219 272.804688 347.320312 273.535156 348.304688 C 274.269531 349.285156 275.324219 349.777344 276.707031 349.777344 C 277.417969 349.777344 278.011719 349.703125 278.492188 349.558594 C 278.972656 349.410156 279.390625 349.246094 279.75 349.058594 C 280.101562 348.867188 280.4375 348.703125 280.753906 348.554688 C 281.066406 348.410156 281.429688 348.332031 281.851562 348.332031 C 282.4375 348.332031 282.90625 348.472656 283.261719 348.742188 C 283.617188 349.011719 283.984375 349.445312 284.359375 350.03125 L 290.261719 359.253906 C 287.75 361.136719 284.925781 362.546875 281.789062 363.488281 C 278.652344 364.429688 275.40625 364.898438 272.058594 364.898438 "/>
<path style=" stroke:none;fill-rule:nonzero;fill:rgb(100%,100%,100%);fill-opacity:1;" d="M 319.503906 269.949219 L 319.503906 363.898438 L 300.050781 363.898438 L 300.050781 269.949219 L 319.503906 269.949219 "/>
<path style=" stroke:none;fill-rule:nonzero;fill:rgb(100%,100%,100%);fill-opacity:1;" d="M 357.785156 352.039062 C 360.289062 352.039062 362.488281 351.597656 364.367188 350.71875 C 366.257812 349.84375 368.160156 348.421875 370.078125 346.453125 L 370.078125 337.542969 C 366.191406 337.542969 362.992188 337.796875 360.480469 338.300781 C 357.972656 338.804688 355.980469 339.4375 354.519531 340.199219 C 353.054688 340.960938 352.039062 341.824219 351.476562 342.792969 C 350.910156 343.765625 350.628906 344.816406 350.628906 345.957031 C 350.628906 348.199219 351.234375 349.769531 352.449219 350.679688 C 353.660156 351.585938 355.4375 352.039062 357.785156 352.039062 Z M 380.121094 363.898438 C 378.28125 363.898438 376.890625 363.648438 375.949219 363.144531 C 375.011719 362.640625 374.226562 361.597656 373.59375 360.007812 L 372.214844 356.429688 C 370.582031 357.808594 369.019531 359.023438 367.507812 360.066406 C 366.003906 361.113281 364.441406 362.003906 362.832031 362.734375 C 361.222656 363.472656 359.503906 364.015625 357.683594 364.367188 C 355.871094 364.722656 353.851562 364.898438 351.632812 364.898438 C 348.660156 364.898438 345.960938 364.511719 343.539062 363.738281 C 341.109375 362.964844 339.050781 361.816406 337.355469 360.308594 C 335.660156 358.796875 334.351562 356.914062 333.433594 354.667969 C 332.511719 352.425781 332.054688 349.832031 332.054688 346.894531 C 332.054688 344.585938 332.636719 342.21875 333.8125 339.78125 C 334.980469 337.347656 337.011719 335.136719 339.898438 333.136719 C 342.78125 331.144531 346.675781 329.480469 351.570312 328.136719 C 356.460938 326.789062 362.636719 326.121094 370.078125 326.121094 L 370.078125 323.332031 C 370.078125 319.492188 369.300781 316.714844 367.730469 315.003906 C 366.160156 313.292969 363.933594 312.4375 361.042969 312.4375 C 358.742188 312.4375 356.859375 312.691406 355.398438 313.1875 C 353.933594 313.691406 352.628906 314.257812 351.476562 314.886719 C 350.324219 315.511719 349.203125 316.078125 348.117188 316.582031 C 347.03125 317.078125 345.734375 317.335938 344.226562 317.335938 C 342.886719 317.335938 341.75 317.007812 340.808594 316.359375 C 339.867188 315.710938 339.121094 314.902344 338.582031 313.941406 L 335.066406 307.855469 C 339 304.386719 343.359375 301.800781 348.152344 300.109375 C 352.9375 298.410156 358.074219 297.5625 363.554688 297.5625 C 367.484375 297.5625 371.03125 298.203125 374.191406 299.476562 C 377.351562 300.757812 380.03125 302.53125 382.226562 304.8125 C 384.421875 307.089844 386.105469 309.804688 387.277344 312.941406 C 388.445312 316.078125 389.03125 319.507812 389.03125 323.230469 L 389.03125 363.898438 L 380.121094 363.898438 "/>
<path style=" stroke:none;fill-rule:nonzero;fill:rgb(100%,100%,100%);fill-opacity:1;" d="M 442.621094 313.066406 C 442.125 313.859375 441.589844 314.421875 441.023438 314.761719 C 440.460938 315.09375 439.742188 315.265625 438.859375 315.265625 C 437.941406 315.265625 437.019531 315.066406 436.101562 314.667969 C 435.179688 314.269531 434.183594 313.84375 433.117188 313.378906 C 432.054688 312.917969 430.847656 312.492188 429.507812 312.09375 C 428.171875 311.695312 426.644531 311.496094 424.929688 311.496094 C 422.460938 311.496094 420.566406 311.964844 419.25 312.90625 C 417.933594 313.847656 417.273438 315.160156 417.273438 316.828125 C 417.273438 318.046875 417.699219 319.050781 418.558594 319.839844 C 419.414062 320.636719 420.554688 321.339844 421.980469 321.941406 C 423.402344 322.550781 425.011719 323.128906 426.816406 323.671875 C 428.613281 324.21875 430.449219 324.820312 432.335938 325.488281 C 434.21875 326.160156 436.054688 326.945312 437.859375 327.84375 C 439.65625 328.742188 441.269531 329.851562 442.691406 331.171875 C 444.113281 332.488281 445.253906 334.089844 446.109375 335.972656 C 446.96875 337.851562 447.394531 340.113281 447.394531 342.75 C 447.394531 345.96875 446.808594 348.941406 445.640625 351.65625 C 444.464844 354.378906 442.722656 356.722656 440.398438 358.691406 C 438.074219 360.65625 435.210938 362.183594 431.800781 363.273438 C 428.390625 364.355469 424.46875 364.898438 420.035156 364.898438 C 417.816406 364.898438 415.597656 364.695312 413.386719 364.273438 C 411.164062 363.859375 409.019531 363.289062 406.949219 362.582031 C 404.878906 361.867188 402.964844 361.019531 401.203125 360.039062 C 399.449219 359.054688 397.945312 358 396.691406 356.871094 L 401.203125 349.714844 C 401.746094 348.878906 402.402344 348.222656 403.152344 347.738281 C 403.90625 347.257812 404.890625 347.015625 406.101562 347.015625 C 407.230469 347.015625 408.242188 347.269531 409.148438 347.765625 C 410.042969 348.269531 411.015625 348.8125 412.0625 349.398438 C 413.109375 349.984375 414.332031 350.527344 415.738281 351.03125 C 417.136719 351.535156 418.90625 351.785156 421.035156 351.785156 C 422.542969 351.785156 423.820312 351.628906 424.867188 351.3125 C 425.910156 351 426.746094 350.574219 427.378906 350.03125 C 428.003906 349.484375 428.464844 348.878906 428.757812 348.210938 C 429.050781 347.539062 429.195312 346.847656 429.195312 346.136719 C 429.195312 344.839844 428.757812 343.773438 427.878906 342.9375 C 427.003906 342.101562 425.851562 341.378906 424.429688 340.773438 C 423.003906 340.164062 421.386719 339.601562 419.566406 339.082031 C 417.746094 338.554688 415.890625 337.957031 414.011719 337.285156 C 412.128906 336.617188 410.273438 335.816406 408.453125 334.875 C 406.632812 333.933594 405.011719 332.738281 403.589844 331.292969 C 402.167969 329.851562 401.019531 328.085938 400.144531 325.992188 C 399.265625 323.902344 398.820312 321.371094 398.820312 318.402344 C 398.820312 315.640625 399.359375 313.011719 400.425781 310.523438 C 401.488281 308.035156 403.09375 305.847656 405.222656 303.964844 C 407.359375 302.082031 410.035156 300.589844 413.257812 299.476562 C 416.476562 298.371094 420.242188 297.816406 424.550781 297.816406 C 426.898438 297.816406 429.164062 298.027344 431.363281 298.441406 C 433.558594 298.863281 435.617188 299.449219 437.542969 300.203125 C 439.46875 300.953125 441.222656 301.847656 442.816406 302.867188 C 444.40625 303.890625 445.804688 305.011719 447.015625 306.222656 L 442.621094 313.066406 "/>
<path style=" stroke:none;fill-rule:nonzero;fill:rgb(100%,100%,100%);fill-opacity:1;" d="M 483.875 212.316406 L 466.878906 212.316406 C 466.878906 186.535156 445.898438 165.5625 420.117188 165.5625 L 420.117188 148.5625 C 455.273438 148.5625 483.875 177.164062 483.875 212.316406 "/>
<path style=" stroke:none;fill-rule:nonzero;fill:rgb(100%,100%,100%);fill-opacity:1;" d="M 517.699219 212.308594 L 500.703125 212.308594 C 500.703125 167.875 464.554688 131.722656 420.117188 131.722656 L 420.117188 114.726562 C 473.925781 114.726562 517.699219 158.5 517.699219 212.308594 "/>
<path style=" stroke:none;fill-rule:nonzero;fill:rgb(100%,100%,100%);fill-opacity:1;" d="M 549.890625 211.941406 L 532.890625 211.941406 C 532.890625 149.757812 482.304688 99.167969 420.117188 99.167969 L 420.117188 82.171875 C 491.671875 82.171875 549.890625 140.386719 549.890625 211.941406 "/>
</g>
</svg>
